# xmcd CD database file
#
# Track frame offsets:
#	150
#	18611
#	40307
#	68697
#	96738
#	114846
#	124974
#	147963
#	175400
#	198560
#	215428
#	235956
#	256699
#
# Disc length: 3668 seconds
#
# Revision: 0
# Processed by: cddbd v1.5.1PL0 Copyright (c) Steve Scherf et al.
# Submitted via: CDex 1.51
#
DISCID=c10e520d
DTITLE=Various Artist - A nova musica brasileira (brahma)
DYEAR=2005
DGENRE=Salsa
TTITLE0=apor errado - fernanda porto
TTITLE1=lavanda - otto
TTITLE2=suburbano -raffin hood
TTITLE3=esperra - technozoide
TTITLE4=acredite ou nao - joao marcello boscoli
TTITLE5=avisa gil - otto
TTITLE6=tudo de bom - fernanda porto
TTITLE7=la nomar - patricia marx
TTITLE8=sou negrao - raffin hood
TTITLE9=tudo pra ser feliz - totonho e os cabras
TTITLE10=mais uma vez.um amor - max de castro
TTITLE11=e isso gue da - wilson simoninha
TTITLE12=todas as letras - jair oliviera
EXTD=YEAR: 2005
EXTT0=
EXTT1=
EXTT2=
EXTT3=
EXTT4=
EXTT5=
EXTT6=
EXTT7=
EXTT8=
EXTT9=
EXTT10=
EXTT11=
EXTT12=
PLAYORDER=
